<svg width="1593" height="1526" xmlns="http://www.w3.org/2000/svg" xmlns:xlink="http://www.w3.org/1999/xlink" xml:space="preserve" overflow="hidden"><g transform="translate(-1395 -489)"><path d="M1614 645 1614 1345.97" stroke="#008080" stroke-width="160.417" stroke-linecap="round" stroke-miterlimit="8" fill="none" fill-rule="evenodd"/><path d="M0 0 451.956 0.000360892" stroke="#008080" stroke-width="160.417" stroke-linecap="round" stroke-miterlimit="8" fill="none" fill-rule="evenodd" transform="matrix(-1 0 0 1 2065.96 1346)"/><path d="M0 0 0.000360892 265.86" stroke="#548235" stroke-width="160.417" stroke-linecap="round" stroke-miterlimit="8" fill="none" fill-rule="evenodd" transform="matrix(1 0 0 -1 2261 1345.86)"/><path d="M2672.22 1346.3 2550 1122" stroke="#548235" stroke-width="160.417" stroke-linecap="round" stroke-miterlimit="8" fill="none" fill-rule="evenodd"/><path d="M2273.48 682.043C2275.59 664.122 2347.26 661.272 2480.38 671.482 2613.49 681.691 2692.15 756.379 2698.16 874.134 2704.17 991.889 2586.48 1086.32 2502.15 1097.91 2417.82 1109.5 2364.21 1104.95 2295.25 1108.47 2226.28 1111.99 2242.62 754.875 2273.48 682.043Z" stroke="#548235" stroke-width="160.417" stroke-linecap="round" stroke-miterlimit="8" fill="none" fill-rule="evenodd"/><path d="M2738.92 808.638C2781.76 679.42 2824.59 550.202 2796.68 527.663 2768.76 505.125 2670.09 589.265 2571.42 673.406" stroke="#548235" stroke-width="68.75" stroke-miterlimit="8" fill="none" fill-rule="evenodd"/><path d="M157.585 280.835C209.397 154.946 261.209 29.0576 234.945 4.61329 208.681-19.831 104.34 57.1686 0 134.169" stroke="#548235" stroke-width="68.75" stroke-miterlimit="8" fill="none" fill-rule="evenodd" transform="matrix(-0.986641 0.162908 0.162908 0.986641 2362.27 489.641)"/><path d="M1677 1539 1677 1715.15" stroke="#BF9000" stroke-width="59.5833" stroke-linecap="round" stroke-miterlimit="8" fill="none" fill-rule="evenodd"/><path d="M0 0 114.889 0.000360892" stroke="#BF9000" stroke-width="59.5833" stroke-linecap="round" stroke-miterlimit="8" fill="none" fill-rule="evenodd" transform="matrix(-1 0 0 1 1791.89 1715)"/><path d="M1872 1539 1872 1715.15" stroke="#BF9000" stroke-width="59.5833" stroke-linecap="round" stroke-miterlimit="8" fill="none" fill-rule="evenodd"/><path d="M2022 1539 2022 1715.15" stroke="#BF9000" stroke-width="59.5833" stroke-linecap="round" stroke-miterlimit="8" fill="none" fill-rule="evenodd"/><path d="M0 0 131.536 0.000360892" stroke="#BF9000" stroke-width="59.5833" stroke-linecap="round" stroke-miterlimit="8" fill="none" fill-rule="evenodd" transform="matrix(-1 0 0 1 2091.54 1532)"/><path d="M2238 1539 2238 1715.15" stroke="#BF9000" stroke-width="59.5833" stroke-linecap="round" stroke-miterlimit="8" fill="none" fill-rule="evenodd"/><path d="M0 0 131.536 0.000360892" stroke="#BF9000" stroke-width="59.5833" stroke-linecap="round" stroke-miterlimit="8" fill="none" fill-rule="evenodd" transform="matrix(-1 0 0 1 2307.54 1532)"/><path d="M2396 1535 2396 1711.15" stroke="#BF9000" stroke-width="59.5833" stroke-linecap="round" stroke-miterlimit="8" fill="none" fill-rule="evenodd"/><path d="M0 0 114.889 0.000360892" stroke="#BF9000" stroke-width="59.5833" stroke-linecap="round" stroke-miterlimit="8" fill="none" fill-rule="evenodd" transform="matrix(-1 0 0 1 2510.89 1711)"/><path d="M0 0 98.2324 0.000360892" stroke="#BF9000" stroke-width="59.5833" stroke-linecap="round" stroke-miterlimit="8" fill="none" fill-rule="evenodd" transform="matrix(-1 0 0 1 2692.23 1710)"/><path d="M2594 1534 2594 1710.15" stroke="#BF9000" stroke-width="59.5833" stroke-linecap="round" stroke-miterlimit="8" fill="none" fill-rule="evenodd"/><path d="M0 0 98.2324 0.000360892" stroke="#BF9000" stroke-width="59.5833" stroke-linecap="round" stroke-miterlimit="8" fill="none" fill-rule="evenodd" transform="matrix(-1 0 0 1 2692.23 1532)"/><path d="M0 0 77.4551 0.000360892" stroke="#BF9000" stroke-width="59.5833" stroke-linecap="round" stroke-miterlimit="8" fill="none" fill-rule="evenodd" transform="matrix(-1 0 0 1 2671.46 1622)"/><path d="M0 0 98.2324 0.000360892" stroke="#BF9000" stroke-width="59.5833" stroke-linecap="round" stroke-miterlimit="8" fill="none" fill-rule="evenodd" transform="matrix(-1 0 0 1 1734.23 1982)"/><path d="M1636 1806 1636 1982.15" stroke="#BF9000" stroke-width="59.5833" stroke-linecap="round" stroke-miterlimit="8" fill="none" fill-rule="evenodd"/><path d="M0 0 98.2324 0.000360892" stroke="#BF9000" stroke-width="59.5833" stroke-linecap="round" stroke-miterlimit="8" fill="none" fill-rule="evenodd" transform="matrix(-1 0 0 1 1734.23 1804)"/><path d="M0 0 77.4551 0.000360892" stroke="#BF9000" stroke-width="59.5833" stroke-linecap="round" stroke-miterlimit="8" fill="none" fill-rule="evenodd" transform="matrix(-1 0 0 1 1713.45 1894)"/><path d="M0 0 98.2324 0.000360892" stroke="#BF9000" stroke-width="59.5833" stroke-linecap="round" stroke-miterlimit="8" fill="none" fill-rule="evenodd" transform="matrix(-1 0 0 1 2578.23 1982)"/><path d="M2480 1806 2480 1982.15" stroke="#BF9000" stroke-width="59.5833" stroke-linecap="round" stroke-miterlimit="8" fill="none" fill-rule="evenodd"/><path d="M0 0 98.2324 0.000360892" stroke="#BF9000" stroke-width="59.5833" stroke-linecap="round" stroke-miterlimit="8" fill="none" fill-rule="evenodd" transform="matrix(-1 0 0 1 2578.23 1804)"/><path d="M0 0 77.4551 0.000360892" stroke="#BF9000" stroke-width="59.5833" stroke-linecap="round" stroke-miterlimit="8" fill="none" fill-rule="evenodd" transform="matrix(-1 0 0 1 2557.46 1894)"/><path d="M0 0 98.2324 0.000360892" stroke="#BF9000" stroke-width="59.5833" stroke-linecap="round" stroke-miterlimit="8" fill="none" fill-rule="evenodd" transform="matrix(-1 0 0 1 2768.23 1982)"/><path d="M2670 1806 2670 1982.15" stroke="#BF9000" stroke-width="59.5833" stroke-linecap="round" stroke-miterlimit="8" fill="none" fill-rule="evenodd"/><path d="M0 0 98.2324 0.000360892" stroke="#BF9000" stroke-width="59.5833" stroke-linecap="round" stroke-miterlimit="8" fill="none" fill-rule="evenodd" transform="matrix(-1 0 0 1 2768.23 1804)"/><path d="M0 0 77.4551 0.000360892" stroke="#BF9000" stroke-width="59.5833" stroke-linecap="round" stroke-miterlimit="8" fill="none" fill-rule="evenodd" transform="matrix(-1 0 0 1 2747.46 1894)"/><path d="M0 0 0.000360892 73.1218" stroke="#BF9000" stroke-width="59.5833" stroke-linecap="round" stroke-miterlimit="8" fill="none" fill-rule="evenodd" transform="matrix(1 0 0 -1 1429 1982.12)"/><path d="M1544.06 1981.69 1510 1920" stroke="#BF9000" stroke-width="59.5833" stroke-linecap="round" stroke-miterlimit="8" fill="none" fill-rule="evenodd"/><path d="M1432.67 1799.32C1433.26 1794.39 1453.24 1793.59 1490.33 1796.38 1527.42 1799.16 1549.33 1819.69 1550.98 1852.08 1552.64 1884.46 1519.82 1910.46 1496.32 1913.66 1472.81 1916.87 1457.88 1915.62 1438.66 1916.61 1419.44 1917.59 1424.06 1819.36 1432.67 1799.32Z" stroke="#BF9000" stroke-width="59.5833" stroke-linecap="round" stroke-miterlimit="8" fill="none" fill-rule="evenodd"/><path d="M1829 1806 1829 1982.15" stroke="#BF9000" stroke-width="59.5833" stroke-linecap="round" stroke-miterlimit="8" fill="none" fill-rule="evenodd"/><path d="M0 0 98.2324 0.000360892" stroke="#BF9000" stroke-width="59.5833" stroke-linecap="round" stroke-miterlimit="8" fill="none" fill-rule="evenodd" transform="matrix(-1 0 0 1 1927.23 1804)"/><path d="M0 0 77.4551 0.000360892" stroke="#BF9000" stroke-width="59.5833" stroke-linecap="round" stroke-miterlimit="8" fill="none" fill-rule="evenodd" transform="matrix(-1 0 0 1 1906.46 1894)"/><path d="M2012 1804C2032.92 1864.32 1986.07 1982.16 2074.77 1984.95 2163.47 1987.75 2120.26 1865.92 2143 1806.4" stroke="#BF9000" stroke-width="59.5833" stroke-linecap="round" stroke-miterlimit="8" fill="none" fill-rule="evenodd"/><path d="M2369.59 1834.26C2346.37 1812.71 2323.16 1798.96 2300.63 1801.25 2278.11 1803.54 2245.47 1825.55 2234.44 1848.01 2223.41 1870.47 2225.7 1913.8 2234.44 1936.03 2243.17 1958.26 2267.54 1975.46 2286.84 1981.41 2306.15 1987.37 2334.42 1982.56 2350.28 1971.79 2366.14 1961.01 2375.56 1928.92 2382 1916.77" stroke="#BF9000" stroke-width="59.5833" stroke-linecap="round" stroke-miterlimit="8" fill="none" fill-rule="evenodd"/><path d="M0 0 50.875 0.000360892" stroke="#BF9000" stroke-width="59.5833" stroke-linecap="round" stroke-miterlimit="8" fill="none" fill-rule="evenodd" transform="matrix(-1 0 0 1 2381.88 1906)"/><path d="M2958 1837.81C2942.3 1821.26 2926.6 1804.72 2909.88 1801.58 2893.15 1798.44 2866.56 1808.58 2857.62 1818.97 2848.69 1829.36 2847.31 1851.09 2856.25 1863.9 2865.19 1876.7 2895.67 1886.36 2911.25 1895.78 2926.83 1905.2 2942.88 1909.79 2949.75 1920.41 2956.62 1931.04 2958.23 1949.16 2952.5 1959.54 2946.77 1969.93 2929.35 1979.59 2915.38 1982.73 2901.4 1985.87 2879.85 1982.73 2868.62 1978.38 2857.4 1974.03 2852.7 1965.34 2848 1956.64" stroke="#BF9000" stroke-width="59.5833" stroke-linecap="round" stroke-miterlimit="8" fill="none" fill-rule="evenodd"/></g></svg>